<svg width="263" height="43" viewBox="0 0 263 43" fill="none" xmlns="http://www.w3.org/2000/svg">
<path d="M129.961 1.23078C130.15 0.775437 130.795 0.775436 130.985 1.23078L135.941 13.148C136.021 13.3399 136.202 13.4711 136.409 13.4877L149.274 14.5191C149.766 14.5586 149.965 15.172 149.591 15.4929L139.789 23.8895C139.631 24.0248 139.562 24.237 139.61 24.4392L142.605 36.9939C142.719 37.4736 142.197 37.8527 141.776 37.5957L130.762 30.8679C130.584 30.7595 130.361 30.7595 130.184 30.8679L119.169 37.5957C118.748 37.8527 118.226 37.4736 118.341 36.9939L121.335 24.4392C121.384 24.237 121.315 24.0248 121.157 23.8895L111.354 15.4929C110.98 15.172 111.179 14.5586 111.671 14.5191L124.536 13.4877C124.744 13.4711 124.924 13.3399 125.004 13.148L129.961 1.23078Z" fill="url(#paint0_linear_300_294)"/>
<path d="M241.322 1.23078C241.511 0.775437 242.156 0.775436 242.345 1.23078L247.302 13.148C247.382 13.3399 247.562 13.4711 247.77 13.4877L260.635 14.5191C261.127 14.5586 261.326 15.172 260.952 15.4929L251.149 23.8895C250.991 24.0248 250.923 24.237 250.971 24.4392L253.966 36.9939C254.08 37.4736 253.558 37.8527 253.137 37.5957L242.122 30.8679C241.945 30.7595 241.722 30.7595 241.544 30.8679L230.53 37.5957C230.109 37.8527 229.587 37.4736 229.701 36.9939L232.696 24.4392C232.744 24.237 232.675 24.0248 232.518 23.8895L222.715 15.4929C222.341 15.172 222.54 14.5586 223.032 14.5191L235.897 13.4877C236.105 13.4711 236.285 13.3399 236.365 13.148L241.322 1.23078Z" fill="url(#paint1_linear_300_294)"/>
<path d="M20.6546 1.23078C20.8439 0.775437 21.489 0.775436 21.6784 1.23078L26.635 13.148C26.7149 13.3399 26.8954 13.4711 27.1026 13.4877L39.9683 14.5191C40.4598 14.5586 40.6592 15.172 40.2846 15.4929L30.4824 23.8895C30.3245 24.0248 30.2555 24.237 30.3038 24.4392L33.2985 36.9939C33.4129 37.4736 32.8911 37.8527 32.4702 37.5957L21.4555 30.8679C21.278 30.7595 21.0549 30.7595 20.8775 30.8679L9.86271 37.5957C9.44185 37.8527 8.92 37.4736 9.03442 36.9939L12.0292 24.4392C12.0774 24.237 12.0085 24.0248 11.8506 23.8895L2.04831 15.4929C1.67378 15.172 1.87311 14.5586 2.36469 14.5191L15.2303 13.4877C15.4376 13.4711 15.6181 13.3399 15.6979 13.148L20.6546 1.23078Z" fill="url(#paint2_linear_300_294)"/>
<path d="M74.2761 1.23078C74.4655 0.775437 75.1106 0.775436 75.3 1.23078L80.2566 13.148C80.3364 13.3399 80.517 13.4711 80.7242 13.4877L93.5898 14.5191C94.0814 14.5586 94.2807 15.172 93.9062 15.4929L84.104 23.8895C83.9461 24.0248 83.8771 24.237 83.9254 24.4392L86.9201 36.9939C87.0345 37.4736 86.5127 37.8527 86.0918 37.5957L75.077 30.8679C74.8996 30.7595 74.6765 30.7595 74.4991 30.8679L63.4843 37.5957C63.0634 37.8527 62.5416 37.4736 62.656 36.9939L65.6508 24.4392C65.699 24.237 65.63 24.0248 65.4721 23.8895L55.6699 15.4929C55.2954 15.172 55.4947 14.5586 55.9863 14.5191L68.8519 13.4877C69.0591 13.4711 69.2397 13.3399 69.3195 13.148L74.2761 1.23078Z" fill="url(#paint3_linear_300_294)"/>
<path d="M185.638 1.23078C185.828 0.775437 186.473 0.775436 186.662 1.23078L191.619 13.148C191.699 13.3399 191.879 13.4711 192.087 13.4877L204.952 14.5191C205.444 14.5586 205.643 15.172 205.269 15.4929L195.466 23.8895C195.308 24.0248 195.239 24.237 195.288 24.4392L198.282 36.9939C198.397 37.4736 197.875 37.8527 197.454 37.5957L186.439 30.8679C186.262 30.7595 186.039 30.7595 185.861 30.8679L174.847 37.5957C174.426 37.8527 173.904 37.4736 174.018 36.9939L177.013 24.4392C177.061 24.237 176.992 24.0248 176.834 23.8895L167.032 15.4929C166.658 15.172 166.857 14.5586 167.349 14.5191L180.214 13.4877C180.421 13.4711 180.602 13.3399 180.682 13.148L185.638 1.23078Z" fill="url(#paint4_linear_300_294)"/>
<defs>
<linearGradient id="paint0_linear_300_294" x1="141.337" y1="-6.55599" x2="120.358" y2="52.8225" gradientUnits="userSpaceOnUse">
<stop stop-color="#FFD027"/>
<stop offset="1" stop-color="#E3951E"/>
</linearGradient>
<linearGradient id="paint1_linear_300_294" x1="252.698" y1="-6.55599" x2="231.719" y2="52.8225" gradientUnits="userSpaceOnUse">
<stop stop-color="#FFD027"/>
<stop offset="1" stop-color="#E3951E"/>
</linearGradient>
<linearGradient id="paint2_linear_300_294" x1="32.0307" y1="-6.55599" x2="11.0515" y2="52.8225" gradientUnits="userSpaceOnUse">
<stop stop-color="#FFD027"/>
<stop offset="1" stop-color="#E3951E"/>
</linearGradient>
<linearGradient id="paint3_linear_300_294" x1="85.6523" y1="-6.55599" x2="64.6731" y2="52.8225" gradientUnits="userSpaceOnUse">
<stop stop-color="#FFD027"/>
<stop offset="1" stop-color="#E3951E"/>
</linearGradient>
<linearGradient id="paint4_linear_300_294" x1="197.015" y1="-6.55599" x2="176.035" y2="52.8225" gradientUnits="userSpaceOnUse">
<stop stop-color="#FFD027"/>
<stop offset="1" stop-color="#E3951E"/>
</linearGradient>
</defs>
</svg>
